<?xml version="1.0" standalone="no"?>
<!DOCTYPE svg PUBLIC "-//W3C//DTD SVG 20010904//EN"
 "http://www.w3.org/TR/2001/REC-SVG-20010904/DTD/svg10.dtd">
<svg version="1.0" xmlns="http://www.w3.org/2000/svg"
 width="200px" height="200px" viewBox="0 0 1200.000000 1200.000000"
 preserveAspectRatio="xMidYMid meet">

<g transform="translate(0.000000,1200.000000) scale(0.100000,-0.100000)"
fill="#000000" stroke="none">
<path d="M3940 9705 c-30 -8 -84 -30 -120 -49 -36 -18 -108 -55 -161 -83 -119
-62 -193 -79 -291 -67 -119 13 -281 8 -483 -16 -110 -13 -260 -23 -355 -24
-149 -2 -171 -5 -230 -27 -181 -69 -313 -214 -355 -391 -19 -81 -19 -142 1
-229 10 -43 14 -90 10 -122 -3 -29 -8 -99 -12 -157 -10 -167 -1 -194 183 -530
188 -346 237 -420 427 -650 180 -216 376 -492 500 -701 60 -103 119 -175 290
-358 119 -129 217 -261 252 -342 20 -46 23 -71 23 -169 1 -88 6 -135 23 -197
21 -77 25 -83 48 -83 38 0 50 -18 50 -77 l0 -53 -247 2 -246 3 -43 120 c-30
88 -46 120 -58 119 -75 -4 -69 2 -63 -61 4 -32 9 -92 13 -134 l7 -77 -49 9
c-27 5 -61 11 -76 13 -21 4 -31 -1 -47 -23 l-21 -28 126 -83 c109 -73 123 -85
110 -98 -12 -12 -65 10 -410 173 -218 104 -398 186 -401 183 -3 -2 -8 -26 -11
-51 -8 -59 16 -129 54 -156 15 -10 128 -57 252 -105 210 -81 281 -116 312
-154 30 -36 -192 6 -537 101 -230 64 -372 94 -465 99 l-65 3 2 -58 c4 -127 51
-157 261 -167 l147 -7 150 -61 c83 -33 188 -73 235 -90 122 -43 232 -94 223
-103 -21 -20 -264 -32 -498 -23 -132 5 -299 9 -371 9 -143 0 -150 -2 -242 -83
l-32 -29 72 -44 73 -45 125 14 c229 24 290 14 740 -124 135 -42 328 -96 430
-120 184 -44 340 -98 340 -116 0 -5 -76 -123 -170 -261 l-169 -252 700 -3 701
-2 -7 -23 c-3 -12 -9 -54 -12 -92 -4 -59 -2 -79 17 -123 26 -60 102 -135 163
-161 23 -10 176 -58 339 -107 164 -49 298 -93 298 -97 0 -5 -24 -34 -53 -65
-134 -144 -158 -179 -166 -236 -7 -55 -7 -55 21 -61 51 -12 85 5 200 101 122
103 169 133 354 231 188 98 258 119 454 133 69 5 140 12 159 16 25 5 32 4 27
-5 -4 -6 -87 -72 -184 -145 -140 -106 -218 -176 -374 -333 -186 -188 -198
-201 -198 -237 0 -38 35 -86 63 -86 32 0 114 35 142 60 33 30 539 390 843 599
213 146 265 173 426 221 89 27 110 30 117 19 5 -8 9 -17 9 -21 0 -3 -60 -62
-132 -129 -537 -497 -572 -533 -624 -644 -13 -27 -24 -63 -24 -78 0 -25 44
-127 55 -127 2 0 29 11 58 24 56 24 92 61 199 201 66 86 155 161 321 271 299
198 576 347 870 468 238 99 304 130 402 194 39 25 147 86 240 136 l170 90 143
6 143 5 -45 64 c-52 75 -53 70 45 159 86 79 199 155 434 295 270 160 317 191
396 264 114 106 174 224 190 374 7 71 19 110 68 225 85 201 102 261 108 389 6
135 -12 255 -65 410 l-37 110 1 250 c0 138 6 342 13 455 11 187 11 210 -4 248
-16 40 -16 43 4 84 35 74 35 109 -4 298 -20 96 -45 223 -55 283 -27 146 -68
252 -137 355 -76 115 -226 266 -297 298 -116 53 -299 39 -453 -35 -117 -56
-160 -103 -205 -222 -81 -212 -118 -399 -158 -804 -12 -115 -22 -214 -23 -218
-2 -5 -26 28 -55 72 -29 44 -68 93 -88 108 -19 16 -95 118 -169 228 -179 268
-319 439 -468 572 -108 96 -287 167 -867 343 -184 55 -596 184 -915 286 -623
199 -713 235 -860 341 -44 32 -112 71 -150 87 -282 117 -444 239 -588 443 -92
130 -200 217 -316 254 -88 29 -328 36 -411 14z m447 -134 c82 -39 148 -102
248 -236 165 -223 178 -232 850 -625 110 -65 301 -161 361 -183 39 -14 137
-40 219 -57 171 -36 456 -114 735 -201 375 -117 1124 -390 1217 -445 140 -82
384 -352 530 -589 134 -215 354 -665 543 -1110 56 -132 144 -330 196 -440 81
-173 164 -401 164 -450 0 -9 -16 -16 -42 -20 -57 -8 -482 -42 -486 -39 -2 1
26 46 62 101 l66 98 -711 3 -711 2 4 25 5 25 -73 -7 c-96 -8 -96 3 -6 90 l67
66 -50 51 c-63 64 -98 84 -139 76 -17 -3 -76 -38 -131 -77 -137 -98 -192 -123
-261 -117 -30 3 -57 1 -60 -3 -3 -5 6 -36 19 -69 l25 -60 -500 0 -500 0 29 24
c16 13 44 28 63 33 31 8 36 14 49 67 l15 58 -34 66 c-48 93 -94 142 -133 142
-25 0 -41 -11 -84 -57 -29 -32 -53 -61 -53 -65 0 -4 14 -15 30 -25 35 -20 36
-28 14 -83 -19 -46 -14 -72 20 -123 l25 -37 -493 0 -493 0 -7 78 c-3 42 -10
140 -15 218 -21 307 -57 500 -105 573 -70 104 -256 180 -382 157 l-37 -7 34
-22 c19 -11 56 -33 83 -48 29 -16 44 -29 37 -34 -7 -4 -18 -2 -24 4 -7 5 -45
15 -83 22 -61 10 -76 9 -106 -5 -36 -17 -68 -68 -68 -109 0 -31 43 -69 109
-96 30 -13 75 -36 100 -52 60 -37 38 -37 -108 1 -62 17 -115 30 -116 30 -2 0
-5 -9 -8 -21 -5 -18 8 -28 109 -75 63 -30 114 -60 115 -67 1 -7 0 -24 -1 -38
-2 -32 18 -47 137 -108 46 -24 98 -60 118 -82 31 -35 35 -45 34 -92 0 -28 -6
-90 -12 -137 l-12 -85 -95 -3 -95 -3 46 48 c26 26 56 67 68 90 l21 42 -26 30
c-14 17 -63 50 -110 72 -69 35 -94 42 -146 43 -58 1 -63 -1 -83 -30 -11 -17
-27 -49 -34 -72 -13 -40 -13 -43 14 -81 15 -22 53 -59 84 -83 31 -23 60 -46
65 -50 6 -4 -120 -8 -280 -8 l-289 0 -2 81 c-4 106 -16 181 -60 364 -68 285
-56 499 39 675 78 143 111 211 106 216 -10 9 -183 -66 -231 -101 -62 -46 -104
-106 -125 -177 -9 -32 -20 -58 -23 -58 -19 0 -260 225 -360 336 -161 178 -204
231 -294 364 -43 63 -176 245 -297 403 -256 336 -411 550 -468 646 -48 80
-183 399 -175 412 14 22 37 4 88 -68 50 -72 101 -127 167 -178 15 -11 56 -65
92 -120 114 -173 234 -313 472 -551 265 -264 376 -349 499 -378 26 -6 27 -5
27 32 0 25 -8 50 -22 68 -63 83 -188 210 -313 319 -220 192 -380 365 -574 625
-148 197 -207 328 -237 525 -19 122 -15 309 6 343 34 53 111 76 359 107 98 12
118 11 145 -1 17 -7 89 -23 159 -34 71 -11 141 -27 156 -34 54 -28 54 -37 6
-111 -25 -37 -45 -69 -45 -71 0 -2 9 -8 20 -14 18 -9 29 -5 70 24 59 42 174
101 250 128 36 13 93 22 165 25 95 5 119 2 172 -16 82 -28 155 -76 224 -148
68 -70 103 -122 157 -229 54 -107 80 -128 151 -121 30 3 58 10 63 15 6 6 -21
57 -71 135 -45 69 -81 128 -81 131 0 3 10 6 23 6 38 0 67 12 67 27 0 9 -43 35
-107 65 -60 28 -151 80 -203 116 -140 95 -219 127 -349 137 -42 3 -110 1 -151
-5 -157 -23 -195 -22 -448 5 -175 18 -257 23 -266 16 -15 -12 -106 18 -106 35
0 18 59 22 438 35 482 17 596 4 864 -97 177 -66 435 -135 465 -123 66 25 -14
102 -240 230 -89 51 -164 94 -166 96 -14 11 129 88 200 108 75 21 158 12 236
-24z m5223 -1464 c65 -31 144 -95 190 -155 40 -52 94 -209 150 -437 70 -287
90 -496 70 -749 -7 -87 -15 -169 -19 -183 l-6 -24 -37 35 c-20 20 -39 36 -42
36 -3 0 -17 -20 -32 -45 -14 -25 -27 -45 -27 -45 -18 2 -151 40 -155 45 -3 3
-1 25 6 48 9 36 9 44 -5 55 -33 25 -78 14 -141 -33 -78 -59 -119 -75 -188 -75
-68 0 -153 -23 -182 -51 -30 -27 -28 -72 8 -171 35 -95 72 -153 111 -174 54
-28 77 -21 299 81 164 76 237 101 316 110 l61 7 11 -88 c7 -49 21 -190 32
-313 11 -123 27 -278 36 -345 29 -224 4 -429 -60 -499 -35 -38 -76 -35 -177
12 -46 21 -138 59 -204 85 -74 29 -125 54 -133 67 -13 21 -38 85 -182 479 -45
124 -123 326 -172 450 -174 433 -199 531 -199 775 -1 141 23 307 87 620 38
183 65 254 120 322 53 64 190 157 274 184 45 15 132 4 190 -24z m-6315 -2889
c75 -114 76 -116 29 -88 -67 41 -111 80 -130 116 -18 33 -18 34 1 48 11 9 25
15 30 16 6 0 37 -41 70 -92z m1288 -40 c-3 -18 -11 -55 -17 -83 l-11 -50 -115
-5 -115 -5 -27 -125 c-38 -173 -42 -160 46 -160 l74 0 -14 -67 c-23 -111 -16
-103 -99 -103 -49 0 -74 -4 -77 -12 -3 -7 -27 -118 -54 -245 l-48 -233 -89 0
c-80 0 -88 2 -83 18 3 9 55 253 116 542 61 289 113 533 116 543 5 15 23 17
204 17 l200 0 -7 -32z m2076 -5 c-4 -21 -56 -263 -114 -537 -58 -275 -108
-510 -111 -523 -6 -22 -11 -23 -85 -23 -43 0 -79 3 -79 8 0 4 53 256 117 560
l117 552 82 0 82 0 -9 -37z m275 0 c-4 -21 -12 -56 -18 -78 l-12 -40 -77 -3
c-86 -3 -86 -3 -68 68 5 19 12 47 15 63 6 27 7 27 87 27 l80 0 -7 -37z m2796
-124 c83 -14 156 -54 188 -102 24 -37 27 -49 27 -131 0 -114 -21 -162 -114
-260 -117 -122 -228 -180 -376 -195 -64 -6 -99 -16 -147 -41 -34 -18 -86 -38
-115 -45 -62 -14 -58 -23 -42 108 l12 88 44 32 c141 103 173 129 173 143 0 11
-5 14 -17 10 -10 -4 -170 -99 -356 -212 -187 -113 -340 -204 -342 -202 -1 2
-44 65 -94 141 l-93 139 46 69 46 69 30 -15 c29 -15 161 -48 233 -58 34 -5 36
-4 27 13 -15 28 -12 96 6 138 17 41 61 92 79 92 7 0 31 -14 55 -31 32 -23 45
-28 54 -19 8 9 -3 24 -44 61 -82 73 -137 107 -186 115 -24 3 -44 11 -44 16 0
5 12 22 28 37 23 23 41 29 117 39 50 7 101 14 115 16 45 8 634 -5 690 -15z
m-6420 -107 c0 -10 -12 -52 -26 -93 -33 -95 -35 -182 -4 -261 51 -136 148
-165 272 -83 54 36 72 81 65 168 -3 37 -4 67 -3 67 2 0 36 -49 75 -109 l73
-109 -71 -106 c-39 -58 -76 -106 -82 -106 -5 0 -49 16 -95 35 -87 36 -469 142
-759 210 -163 38 -185 47 -185 71 0 18 114 19 258 2 119 -14 163 -6 235 40
l44 28 -27 57 c-34 71 -62 102 -120 133 -59 30 -40 30 57 -1 126 -40 195 -29
251 42 30 37 42 41 42 15z m1586 -42 c-3 -22 -11 -62 -17 -88 -10 -47 -11 -48
-43 -44 -40 5 -102 -22 -122 -53 -8 -12 -43 -156 -77 -321 l-63 -299 -82 -3
-82 -3 6 29 c3 16 43 204 88 418 l83 389 82 3 83 3 -7 -32 -7 -32 35 27 c36
27 76 44 111 45 16 1 18 -4 12 -39z m352 14 c38 -28 62 -81 62 -136 0 -60 -94
-507 -116 -550 -52 -103 -119 -149 -218 -150 -108 0 -166 56 -166 162 0 68 97
499 125 557 29 58 92 118 140 133 49 15 142 6 173 -16z m468 7 c23 -11 46 -27
51 -36 9 -15 13 -14 45 8 42 28 97 52 103 45 3 -3 -1 -34 -8 -69 l-13 -64 -44
-11 -43 -10 -24 -115 c-38 -184 -52 -232 -81 -274 -42 -60 -97 -93 -177 -108
-59 -11 -70 -16 -73 -34 -4 -26 16 -38 78 -48 78 -11 136 -35 166 -66 26 -27
29 -37 29 -92 -1 -117 -75 -206 -204 -244 -74 -21 -211 -14 -267 15 -96 49
-84 169 24 229 l49 27 -28 27 c-52 49 -31 129 49 186 l37 27 -22 45 c-30 58
-29 98 6 257 35 156 48 189 95 242 71 78 166 102 252 63z m533 1 c55 -28 74
-61 73 -131 0 -34 -4 -66 -7 -71 -3 -6 -39 -10 -80 -10 l-74 0 6 36 c5 29 2
40 -12 50 -26 19 -49 3 -70 -48 -23 -60 -13 -95 51 -177 71 -92 94 -142 94
-213 0 -156 -111 -280 -252 -280 -112 0 -173 61 -173 172 1 87 3 90 85 90 l70
0 0 -46 c0 -57 14 -84 45 -84 47 0 88 94 67 150 -6 14 -39 64 -75 112 -75 100
-91 151 -76 233 13 71 55 151 95 181 70 54 169 69 233 36z m1024 4 c18 -7 41
-23 51 -35 25 -28 32 -106 16 -192 l-12 -69 -83 0 -83 0 14 58 c7 31 13 67 14
78 0 39 -50 41 -70 3 -13 -24 -110 -482 -110 -520 0 -24 4 -29 23 -29 35 0 45
17 64 102 l16 78 82 0 82 0 -19 -82 c-35 -154 -94 -223 -200 -237 -77 -10
-137 4 -173 39 -49 49 -47 119 10 385 51 237 69 298 110 351 55 72 184 106
268 70z m476 -4 c84 -42 97 -113 56 -311 l-28 -131 -128 0 -127 0 -11 -52 c-6
-29 -16 -76 -22 -104 -16 -72 -7 -104 30 -104 37 0 56 29 72 109 l13 61 77 0
77 0 -14 -66 c-25 -116 -87 -203 -170 -235 -16 -6 -55 -11 -86 -11 -106 0
-158 54 -158 165 0 80 92 491 124 554 28 57 95 119 141 132 50 15 118 12 154
-7z m527 -22 c-3 -22 -11 -62 -17 -88 -10 -47 -11 -48 -43 -44 -40 5 -102 -22
-122 -53 -8 -12 -43 -156 -77 -321 l-63 -299 -82 -3 -82 -3 6 29 c3 16 43 204
88 418 l83 389 82 3 83 3 -7 -32 -7 -32 35 27 c36 27 76 44 111 45 16 1 18 -4
12 -39z m-1398 8 c-3 -13 -43 -202 -89 -420 l-84 -398 -83 0 c-75 0 -83 2 -78
18 3 9 41 188 86 397 44 209 82 390 85 403 5 21 11 22 86 22 79 0 81 -1 77
-22z m2002 -677 c0 -21 -124 -96 -145 -87 -25 9 -17 33 20 63 34 28 103 54
118 46 4 -2 7 -12 7 -22z m-3560 -566 c0 -3 -14 -28 -31 -56 -35 -56 -48 -124
-29 -158 11 -21 16 -22 85 -16 57 6 85 3 126 -10 125 -42 255 15 299 129 8 22
16 26 49 26 22 0 62 5 90 12 l51 11 -20 34 -19 33 602 0 603 0 42 -31 c23 -17
42 -33 42 -35 0 -3 -8 -16 -17 -31 -17 -25 -17 -26 7 -18 14 4 92 32 173 61
l148 54 255 -1 c230 -1 253 -3 233 -17 -11 -8 -27 -30 -35 -48 -13 -31 -12
-39 7 -83 11 -27 19 -63 17 -82 l-3 -34 -459 -228 c-252 -125 -460 -226 -461
-225 -1 2 96 97 216 212 120 115 216 212 213 215 -3 3 -46 10 -96 16 l-91 10
89 55 c71 44 84 55 66 58 -43 6 -158 -18 -325 -68 -551 -166 -1100 -259 -1557
-263 -137 -1 -182 3 -265 21 -55 12 -128 28 -162 35 -88 19 -105 37 -101 107
3 67 -10 91 -79 146 -26 22 -54 46 -60 54 -18 22 -32 76 -26 100 5 19 13 20
214 20 115 0 209 -2 209 -5z m3160 -15 c-59 -46 -68 -47 -103 -12 l-32 32 80
0 80 0 -25 -20z m-2345 -849 c-39 -38 -310 -241 -321 -241 -38 0 0 38 148 149
109 82 165 118 172 111 6 -6 6 -13 1 -19z"/>
<path d="M3343 9096 c-68 -22 -124 -60 -189 -127 -168 -177 -233 -346 -205
-535 14 -98 58 -227 102 -301 100 -167 287 -264 514 -266 105 -1 173 26 254
98 117 105 136 106 410 30 240 -66 379 -114 705 -239 137 -53 252 -96 257 -96
28 0 -5 24 -123 90 -306 172 69 37 477 -170 216 -110 393 -214 564 -330 111
-75 257 -197 247 -207 -2 -3 -46 20 -98 50 -160 94 -370 208 -375 204 -2 -3
202 -157 454 -344 369 -273 459 -335 461 -320 6 31 -6 61 -39 103 -58 73 -354
376 -410 419 -73 57 -322 213 -475 298 -213 119 -677 329 -1074 487 -261 104
-412 192 -545 320 -50 48 -95 83 -120 91 -52 18 -107 74 -122 124 -7 22 -21
87 -32 145 -40 211 -152 373 -307 447 -71 34 -85 37 -183 40 -71 2 -120 -2
-148 -11z m220 -120 c67 -24 141 -77 192 -137 94 -111 121 -196 112 -353 -10
-166 -56 -301 -133 -386 -37 -40 -68 -55 -144 -65 l-45 -5 25 17 c65 46 123
111 150 168 38 80 63 224 58 335 -5 108 -43 195 -120 276 -74 78 -115 98 -208
98 -91 1 -121 -13 -200 -93 -175 -175 -168 -442 20 -691 48 -65 37 -76 -38
-38 -57 28 -99 87 -143 201 -84 218 -53 401 92 549 115 116 266 165 382 124z
m-2 -192 c44 -40 96 -157 110 -244 12 -82 6 -140 -23 -218 -21 -56 -71 -122
-83 -110 -4 4 3 49 15 100 34 143 37 241 11 327 -12 40 -31 81 -41 91 -41 41
-145 15 -181 -44 -33 -54 -51 -165 -47 -285 4 -134 16 -156 101 -186 32 -11
57 -23 57 -27 0 -11 -68 -21 -101 -14 -39 8 -112 58 -142 99 -34 46 -47 90
-47 166 0 160 70 298 179 357 66 35 148 30 192 -12z m670 -617 c123 -74 252
-149 286 -168 35 -19 63 -37 63 -41 0 -4 -6 -6 -12 -3 -7 2 -53 15 -103 30
-133 39 -489 156 -498 164 -4 4 -3 20 2 37 6 16 15 48 21 72 6 23 12 42 14 42
2 0 104 -60 227 -133z"/>
<path d="M2266 8967 c-11 -41 -6 -134 9 -177 8 -24 32 -65 52 -91 l37 -49 26
25 c35 33 79 45 168 45 72 0 162 16 162 29 0 3 -46 22 -102 41 l-101 35 -18
54 c-21 67 -52 98 -106 107 l-42 6 -11 -43 c-19 -75 -21 -79 -36 -79 -10 0
-14 14 -14 54 0 57 -13 82 -24 43z"/>
<path d="M4391 8893 c-17 -31 26 -90 102 -139 37 -24 103 -73 145 -108 69 -57
79 -63 96 -51 18 13 17 16 -12 52 -17 21 -70 77 -119 125 -131 129 -189 162
-212 121z"/>
<path d="M5689 8334 c-11 -14 -10 -18 6 -27 11 -6 43 -33 71 -59 56 -53 116
-74 127 -45 4 11 -19 35 -82 81 -49 36 -93 66 -98 66 -6 0 -17 -7 -24 -16z"/>
<path d="M5161 8291 c-10 -18 -4 -25 56 -64 38 -24 128 -83 201 -131 126 -83
134 -87 147 -69 8 10 15 23 15 29 0 10 -355 235 -394 250 -8 3 -19 -3 -25 -15z"/>
<path d="M6214 8228 c-11 -13 -41 -48 -67 -79 l-47 -56 30 -38 c39 -49 39 -80
1 -99 -28 -15 -29 -15 -35 16 -3 17 -6 42 -6 55 0 44 -33 23 -48 -29 -13 -46
-13 -47 -40 -36 -15 7 -72 45 -127 85 -55 40 -118 78 -139 84 -39 11 -121 5
-130 -9 -2 -4 29 -25 70 -47 l75 -39 -36 -14 -36 -15 33 -20 c94 -58 174 -99
393 -199 132 -60 303 -143 380 -183 193 -101 306 -150 625 -270 426 -160 435
-164 498 -205 43 -27 81 -66 135 -137 42 -54 139 -177 217 -273 192 -237 272
-360 394 -606 57 -115 135 -263 173 -329 39 -66 82 -144 97 -172 14 -29 30
-53 34 -53 8 0 92 164 92 179 0 5 -14 11 -32 15 -18 3 -43 13 -56 22 -23 15
-24 21 -19 78 5 55 2 67 -26 120 -17 32 -68 98 -113 146 -45 48 -87 97 -93
109 -13 23 -17 103 -7 119 11 18 -15 25 -33 8 -29 -26 -37 -19 -61 47 -39 108
-89 209 -127 256 -21 25 -89 100 -151 165 l-114 120 24 17 c12 10 42 29 66 41
23 13 42 26 42 29 0 4 -24 25 -52 47 -29 22 -93 76 -143 121 l-90 80 -19 -32
c-11 -18 -21 -33 -22 -35 -5 -7 -131 59 -155 81 -40 36 -53 86 -39 149 12 58
5 128 -17 172 -8 15 -40 56 -71 90 -32 33 -64 72 -73 85 l-15 24 -52 -35 -51
-34 78 -36 c46 -21 86 -46 95 -61 16 -23 16 -29 0 -93 -12 -47 -27 -78 -46
-98 -28 -27 -32 -28 -99 -24 -39 3 -74 9 -79 14 -5 5 0 39 10 78 11 38 17 72
14 75 -6 6 -168 39 -196 40 -15 1 -18 -8 -18 -59 0 -33 -2 -60 -5 -60 -3 0
-33 17 -68 38 -131 80 -135 84 -140 125 -7 49 -38 83 -102 113 -55 26 -85 30
-85 12 0 -6 23 -43 51 -81 28 -39 43 -67 34 -63 -9 3 -24 6 -34 6 -10 0 -22
14 -30 35 -17 48 -70 81 -161 100 -41 8 -90 20 -108 26 -53 17 -61 64 -21 120
10 13 1 45 -42 157 -29 78 -56 142 -59 142 -4 0 -15 -10 -26 -22z"/>
<path d="M6440 8171 c-23 -7 -19 -11 43 -42 59 -29 67 -37 67 -61 0 -15 9 -37
21 -49 21 -21 32 -21 97 -3 20 6 22 3 22 -33 0 -51 21 -70 90 -83 29 -5 54
-10 55 -10 1 0 19 -13 40 -30 55 -43 78 -39 145 25 67 63 65 70 -18 123 -69
45 -137 57 -228 42 -40 -7 -83 -10 -96 -6 -13 3 -39 29 -58 57 -47 71 -103 92
-180 70z"/>
<path d="M7194 8008 l-46 -42 69 -12 c95 -17 100 -17 107 9 5 17 -2 30 -29 55
-19 17 -39 32 -45 32 -6 0 -31 -19 -56 -42z"/>
<path d="M4280 7742 c0 -10 13 -43 30 -73 37 -69 55 -141 75 -299 16 -132 44
-240 70 -278 17 -23 72 -55 136 -77 36 -13 38 -13 55 13 10 15 32 67 50 117
20 56 38 91 48 93 13 3 8 18 -25 85 -115 228 -217 339 -382 411 -52 24 -57 24
-57 8z"/>
<path d="M7612 7678 l-73 -20 42 -32 c138 -103 144 -109 151 -165 3 -29 10
-57 15 -61 4 -4 36 -17 70 -28 53 -17 64 -18 74 -6 12 15 11 17 -124 227 -38
59 -72 107 -76 106 -3 0 -39 -10 -79 -21z"/>
<path d="M4047 7609 c-20 -12 -52 -71 -79 -149 -28 -78 -106 -631 -99 -694 l6
-49 83 79 c65 61 93 81 130 90 32 8 58 24 84 53 34 36 38 46 38 93 0 96 -75
501 -103 553 -17 34 -32 40 -60 24z"/>
<path d="M5116 7461 c-27 -50 -23 -61 49 -160 29 -39 31 -51 10 -51 -8 0 -15
-4 -15 -9 0 -5 -9 -76 -20 -157 -11 -82 -20 -151 -20 -153 0 -2 -11 0 -24 3
l-23 6 21 -55 21 -54 55 52 c119 112 360 352 360 358 0 6 -234 154 -352 223
l-47 27 -15 -30z"/>
<path d="M8115 7019 c-22 -16 -44 -34 -49 -39 -14 -14 100 -161 119 -154 18 7
18 3 5 101 -13 99 -19 123 -28 123 -4 0 -25 -14 -47 -31z"/>
<path d="M6073 6914 c16 -205 113 -337 339 -460 l83 -45 -73 7 c-81 7 -112 -7
-112 -52 0 -17 -4 -21 -19 -17 -28 7 -89 -15 -101 -37 -6 -10 -10 -29 -10 -41
0 -21 -3 -21 -54 -15 l-55 6 41 -87 c74 -162 157 -260 238 -284 43 -13 73 -9
147 22 29 12 35 10 80 -19 l48 -32 8 53 c5 28 6 104 4 167 -4 97 -2 123 14
165 23 60 24 137 4 194 -17 51 -96 174 -139 219 -17 19 -80 64 -141 102 -60
38 -155 106 -209 151 l-99 82 6 -79z"/>
<path d="M5411 6824 c-23 -16 -60 -86 -61 -112 0 -10 8 -8 28 5 118 81 205 46
271 -109 l17 -41 13 59 c7 32 22 81 32 107 11 26 19 49 19 51 0 4 -10 6 -153
36 -120 24 -136 25 -166 4z"/>
<path d="M5405 6579 c-97 -68 -101 -70 -147 -64 -31 4 -59 1 -82 -9 -35 -15
-99 -91 -93 -110 2 -6 19 -22 38 -34 42 -29 89 -25 160 12 l49 25 0 -34 c0
-36 -2 -35 103 -61 42 -10 84 -55 97 -105 21 -76 29 -90 67 -105 30 -13 44
-14 77 -4 23 6 60 15 84 19 24 5 51 15 60 24 15 16 15 22 -5 81 l-21 64 28 5
c35 7 48 37 23 54 -28 21 -210 113 -214 109 -2 -3 -28 42 -58 100 -30 57 -57
104 -60 104 -3 -1 -51 -32 -106 -71z"/>
<path d="M7283 6629 c-30 -9 -32 -12 -26 -42 8 -42 19 -63 60 -114 19 -23 51
-77 72 -120 48 -98 128 -187 230 -254 l76 -50 5 89 c6 105 22 136 80 153 l40
12 -101 68 c-84 56 -108 78 -140 128 -34 54 -45 63 -122 100 -84 41 -116 47
-174 30z"/>
<path d="M6948 6537 c222 -211 465 -428 448 -402 -55 87 -202 251 -306 341
-78 66 -182 134 -207 134 -7 0 22 -33 65 -73z"/>
<path d="M9386 7479 c-125 -43 -211 -128 -285 -285 -50 -103 -81 -191 -81
-226 0 -10 26 -46 58 -78 93 -96 120 -88 303 85 83 80 127 115 143 115 33 0
120 81 140 130 9 22 18 40 20 40 2 0 18 -22 36 -49 41 -64 49 -70 114 -85 52
-12 55 -12 60 8 28 105 -40 229 -170 309 -95 59 -231 73 -338 36z m-86 -126
c14 -10 58 -37 99 -60 l74 -42 -46 -22 c-29 -14 -50 -33 -57 -50 -19 -46 -43
-59 -119 -68 l-71 -7 45 83 c24 46 39 83 34 83 -6 0 -22 -6 -37 -14 -51 -25
-69 -28 -76 -9 -5 12 9 31 51 69 32 29 63 53 68 54 6 0 22 -8 35 -17z"/>
<path d="M5086 4781 c-22 -24 -128 -503 -119 -538 7 -32 55 -31 76 0 24 37
123 515 110 535 -15 25 -46 26 -67 3z"/>
<path d="M5573 4767 c-21 -27 -80 -304 -70 -330 9 -24 44 -21 61 6 19 29 78
304 71 328 -9 26 -40 24 -62 -4z"/>
<path d="M5391 4025 c-72 -62 -7 -123 101 -95 102 28 104 89 2 105 -26 3 -52
9 -59 11 -7 3 -26 -7 -44 -21z"/>
<path d="M7605 4780 c-16 -17 -55 -136 -55 -167 0 -9 16 -13 49 -13 l49 0 16
69 c19 84 20 103 4 119 -18 18 -43 15 -63 -8z"/>
<path d="M7707 3630 c-65 -25 -201 -104 -188 -108 34 -11 221 78 245 117 10
15 -1 13 -57 -9z"/>
</g>
</svg>
